<svg xmlns="http://www.w3.org/2000/svg" viewBox="0 0 512 512">
  <!-- Background -->
  <rect width="512" height="512" rx="100" fill="#1C1C1C"/>
  
  <!-- Sandwich icon centered: original viewBox 121.9x105.5, we want ~380px wide centered -->
  <!-- Scale: 380/121.9 = 3.117, offset x: (512-380)/2=66, offset y: (512-329)/2=91.5 -->
  <g transform="translate(66, 92) scale(3.117)">
    <path fill="#FFFFFF" d="M38.2,91.9c0-.2,0-.3,0-.4,0,0,.2-.1.4-.1h.6c.3,0,.4.1.5.4l.4,2.5c0,0,0,.1,0,.2s0,.1,0,.2c0,0,0,.1,0,.2h0c0,0,0-.1,0-.2,0,0,0-.1,0-.2,0,0,0-.1,0-.2l.6-2.5c0-.3.2-.4.5-.4h.4c.3,0,.4.1.5.4l.6,2.5c0,0,0,.1,0,.2,0,0,0,.1,0,.2,0,0,0,.1,0,.2h0c0,0,0-.1,0-.2,0,0,0-.1,0-.2,0,0,0-.1,0-.2l.5-2.5c0-.3.2-.4.5-.4h.6c.2,0,.3,0,.4.1,0,0,0,.2,0,.4l-1,4.2c0,.3-.2.4-.5.4h-.8c-.3,0-.4-.1-.5-.4l-.4-1.8c0,0,0-.1,0-.2,0,0,0-.1,0-.2,0,0,0-.1,0-.2h0c0,0,0,.1,0,.2,0,0,0,.1,0,.2,0,0,0,.1,0,.2l-.4,1.8c0,.3-.2.4-.5.4h-.8c-.3,0-.4-.1-.5-.4l-1-4.2Z"/>
    <path fill="#FFFFFF" d="M46.6,91.8c0-.3.2-.5.5-.5h2.4c.3,0,.5.2.5.5v.4c0,.3-.2.5-.5.5h-1.3v.6h1c.3,0,.5.2.5.5v.4c0,.3-.2.5-.5.5h-1v.7h1.4c.3,0,.5.2.5.5v.4c0,.3-.2.5-.5.5h-2.5c-.3,0-.5-.2-.5-.5v-4.2Z"/>
    <path fill="#FFFFFF" d="M54.6,91.8c0-.3.2-.4.5-.4h.8c.3,0,.4.1.5.4l.4,1.5c0,0,0,.2,0,.3,0,.1,0,.2,0,.3,0,.1,0,.3,0,.4h0c0-.1,0-.3,0-.4,0-.1,0-.2,0-.3,0-.1,0-.2,0-.3l.4-1.5c0-.3.2-.4.5-.4h.8c.3,0,.5.1.5.4l.3,4.2c0,.2,0,.3,0,.4s-.2.1-.3.1h-.5c-.3,0-.5-.1-.5-.4v-1.4c0-.1,0-.2,0-.4s0-.3,0-.4c0-.1,0-.3,0-.4h0c0,.2,0,.3-.1.4,0,.1,0,.3,0,.4,0,.1,0,.2,0,.3l-.2.7c0,.2-.3.4-.5.4h-.5c-.3,0-.4-.1-.5-.4l-.2-.7c0,0,0-.2,0-.3,0-.1,0-.3,0-.4,0-.1,0-.3-.1-.4h0c0,.1,0,.3,0,.4,0,.1,0,.2,0,.4s0,.2,0,.4v1.4c-.1.3-.3.4-.6.4h-.6c-.2,0-.3,0-.3-.1,0,0-.1-.2,0-.4l.3-4.2Z"/>
    <path fill="#FFFFFF" d="M61.6,91.8c0-.3.2-.5.5-.5h2.4c.3,0,.5.2.5.5v.4c0,.3-.2.5-.5.5h-1.3v.6h1c.3,0,.5.2.5.5v.4c0,.3-.2.5-.5.5h-1v.7h1.4c.3,0,.5.2.5.5v.4c0,.3-.2.5-.5.5h-2.5c-.3,0-.5-.2-.5-.5v-4.2Z"/>
    <path fill="#FFFFFF" d="M66.6,91.8c0-.3.2-.5.5-.5h.6c.3,0,.5.2.5.5v3.4h1.5c.3,0,.5.2.5.5v.4c0,.3-.2.5-.5.5h-2.6c-.3,0-.5-.2-.5-.5v-4.2Z"/>
    <path fill="#FFFFFF" d="M72,92.7h-1c-.3,0-.5-.2-.5-.5v-.4c0-.3.2-.5.5-.5h3.5c.3,0,.5.2.5.5v.4c0,.3-.2.5-.5.5h-1v3.4c0,.3-.2.5-.5.5h-.6c-.3,0-.5-.2-.5-.5v-3.4Z"/>
    <path fill="#FFFFFF" d="M79.2,91.8c0-.3.2-.5.5-.5h.6c.3,0,.5.2.5.5v4.2c0,.3-.2.5-.5.5h-.6c-.3,0-.5-.2-.5-.5v-4.2Z"/>
    <path fill="#FFFFFF" d="M83.7,92.7h-1c-.3,0-.5-.2-.5-.5v-.4c0-.3.2-.5.5-.5h3.5c.3,0,.5.2.5.5v.4c0,.3-.2.5-.5.5h-1v3.4c0,.3-.2.5-.5.5h-.6c-.3,0-.5-.2-.5-.5v-3.4Z"/>
    <path fill="#FFFFFF" d="M87.5,95.6c0-.3.2-.5.5-.5h.4c.3,0,.5.2.5.5v.4c0,.3-.2.5-.5.5h-.4c-.3,0-.5-.2-.5-.5v-.4Z"/>
    <path fill="#FFFFFF" d="M36.8,103.4l-1.4-2.5c0-.2-.1-.3,0-.4s.2-.2.4-.2h.7c.2,0,.4.1.5.3l.3.7c0,0,0,.2.1.3,0,0,0,.2,0,.3,0,0,0,.2,0,.3h0c0,0,0-.2,0-.3,0,0,0-.2,0-.3,0,0,0-.2.1-.3l.3-.7c.1-.2.3-.3.5-.3h.7c.2,0,.3,0,.4.2s0,.2,0,.4l-1.4,2.5v1.6c0,.3-.2.5-.5.5h-.6c-.3,0-.5-.2-.5-.5v-1.6Z"/>
    <path fill="#FFFFFF" d="M40.8,102.8c0-.4,0-.7.2-1s.3-.6.5-.8c.2-.2.5-.4.8-.6.3-.1.7-.2,1.1-.2s.8,0,1.1.2.6.3.8.6c.2.2.4.5.5.8s.2.7.2,1,0,.7-.2,1c-.1.3-.3.6-.5.8-.2.2-.5.4-.8.6-.3.1-.7.2-1.1.2s-.8,0-1.1-.2c-.3-.1-.6-.3-.8-.6-.2-.2-.4-.5-.5-.8-.1-.3-.2-.7-.2-1ZM42.3,102.8c0,.2,0,.4,0,.5s.1.3.2.4c0,.1.2.2.4.3.1,0,.3,0,.5,0s.3,0,.5,0c.1,0,.3-.2.4-.3,0-.1.2-.3.2-.4s0-.3,0-.5,0-.3,0-.5-.1-.3-.2-.4c0-.1-.2-.2-.4-.3-.1,0-.3,0-.5,0s-.3,0-.5,0c-.1,0-.3.1-.4.3,0,.1-.2.2-.2.4s0,.3,0,.5Z"/>
    <path fill="#FFFFFF" d="M47.7,100.8c0-.3.2-.5.5-.5h.6c.3,0,.5.2.5.5v2.7c0,.2,0,.4.2.5.1.1.3.2.5.2s.4,0,.5-.2c.1-.1.2-.3.2-.5v-2.7c0-.3.2-.5.5-.5h.6c.3,0,.5.2.5.5v2.7c0,.3,0,.6-.2.8-.1.2-.2.5-.4.6-.2.2-.4.3-.7.4-.3,0-.6.1-.9.1s-.6,0-.9-.1c-.3,0-.5-.2-.7-.4-.2-.2-.3-.4-.4-.6-.1-.2-.2-.5-.2-.8v-2.7Z"/>
    <path fill="#FFFFFF" d="M56.7,100.8c0-.3.2-.5.5-.5h.6c.3,0,.5.2.5.5v3.4h1.5c.3,0,.5.2.5.5v.4c0,.3-.2.5-.5.5h-2.6c-.3,0-.5-.2-.5-.5v-4.2Z"/>
    <path fill="#FFFFFF" d="M61.3,102.8c0-.4,0-.7.2-1s.3-.6.5-.8c.2-.2.5-.4.8-.6.3-.1.7-.2,1.1-.2s.8,0,1.1.2.6.3.8.6c.2.2.4.5.5.8s.2.7.2,1,0,.7-.2,1c-.1.3-.3.6-.5.8-.2.2-.5.4-.8.6-.3.1-.7.2-1.1.2s-.8,0-1.1-.2c-.3-.1-.6-.3-.8-.6-.2-.2-.4-.5-.5-.8-.1-.3-.2-.7-.2-1ZM62.9,102.8c0,.2,0,.4,0,.5s.1.3.2.4c0,.1.2.2.4.3.1,0,.3,0,.5,0s.3,0,.5,0c.1,0,.3-.2.4-.3,0-.1.2-.3.2-.4s0-.3,0-.5,0-.3,0-.5-.1-.3-.2-.4c0-.1-.2-.2-.4-.3-.1,0-.3,0-.5,0s-.3,0-.5,0c-.1,0-.3.1-.4.3,0,.1-.2.2-.2.4s0,.3,0,.5Z"/>
    <path fill="#FFFFFF" d="M67.9,100.8c0-.2,0-.3,0-.4s.2-.1.4-.1h.7c.3,0,.4.1.5.4l.6,2.2c0,0,0,.2,0,.3s0,.2,0,.3c0,.1,0,.2,0,.3h0c0,0,0-.2,0-.3,0,0,0-.2,0-.3s0-.2,0-.3l.6-2.2c0-.3.2-.4.5-.4h.6c.2,0,.3,0,.4.1s0,.2,0,.4l-1.4,4.2c0,.2-.3.4-.5.4h-.8c-.3,0-.4-.1-.5-.4l-1.5-4.2Z"/>
    <path fill="#FFFFFF" d="M74.1,100.8c0-.3.2-.5.5-.5h2.4c.3,0,.5.2.5.5v.4c0,.3-.2.5-.5.5h-1.3v.6h1c.3,0,.5.2.5.5v.4c0,.3-.2.5-.5.5h-1v.7h1.4c.3,0,.5.2.5.5v.4c0,.3-.2.5-.5.5h-2.5c-.3,0-.5-.2-.5-.5v-4.2Z"/>
    <path fill="#FFFFFF" d="M82,100.8c0-.3.2-.5.5-.5h.6c.3,0,.5.2.5.5v4.2c0,.3-.2.5-.5.5h-.6c-.3,0-.5-.2-.5-.5v-4.2Z"/>
    <path fill="#FFFFFF" d="M86.4,101.6h-1c-.3,0-.5-.2-.5-.5v-.4c0-.3.2-.5.5-.5h3.5c.3,0,.5.2.5.5v.4c0,.3-.2.5-.5.5h-1v3.4c0,.3-.2.5-.5.5h-.6c-.3,0-.5-.2-.5-.5v-3.4Z"/>
    <path fill="#FFFFFF" d="M90.2,104.5c0-.3.2-.5.5-.5h.4c.3,0,.5.2.5.5v.4c0,.3-.2.5-.5.5h-.4c-.3,0-.5-.2-.5-.5v-.4Z"/>
    <path fill="#FFAD41" d="M41.3,28.7c-.4,0-1.2,0-1.9-.7-.6-.6-1-1.5-1-2.6v-4c0-.5.4-1,1-1s1,.4,1,1v4c0,.4,0,.9.3,1.1.3.3.7.2.7.2h45.6c0,0,.6,0,.9-.3.2-.2.3-.6.3-1.1v-5.3s0-.5-.3-.8c-.2-.2-.5-.3-1-.3h-22.1c-2.3,0-2.9.5-3,.7,0,0,0,0,0,0,0,0,0,.1,0,.2,0,2.1-1.4,3.8-3.1,3.8s-3.1-1.6-3.1-3.7c0-.1-.1-.6-.5-.6-.1.1-.3.9-.3,1.4,0,2.6-1.7,4.7-3.8,4.7s-3.8-2.1-3.8-4.7c0-.8-.2-1.7-.4-1.9-.1,0-.3,0-.4,0-.4,0-1.4,0-4,0s-2.6-.4-3.3-1.1c-.5-.6-.6-1.2-.6-1.5,0-.3,0-1,.4-1.7.6-.8,1.6-1.1,3.1-1.1h45c.3,0,1.3-.2,1.3-1.8V2.9c0-.3-.4-1-1.3-1h-45.6s0,0-.1,0c0,0,0,0,0,0,0,0-.4,0-.5.2-.3.2-.3.8-.3,1.1v5.1c0,.2,0,.7.3,1,0,0,.2.2.7.2h43.4c.5,0,1,.4,1,1s-.4,1-1,1h-43.4c-1.1,0-1.8-.5-2.1-.8-.9-.9-.8-2.2-.8-2.4V3.2c0-1.1.3-2,1-2.6C40.2,0,41.1,0,41.4,0h45.5c2.1,0,3,1.7,3.2,2.6,0,0,0,.1,0,.2v8.8c0,3.1-2.3,3.7-3.2,3.7h-45c-1.2,0-1.5.3-1.6.4,0,0,0,.2,0,.2,0,.1,0,.2,0,.4,0,.2.4.7,2,.7,3.3,0,4.6,0,5.1.3.2,0,.4.2.6.4.9.9.9,2.8.9,3.2,0,1.5.9,2.8,1.9,2.8s1.9-1.3,1.9-2.8c0-.3,0-1.9.9-2.8.4-.4.8-.5,1.3-.5,1.7,0,2.3,1.5,2.4,2.3,0,0,0,0,0,.1,0,1,.6,1.9,1.2,1.9s1.2-.8,1.2-1.8c0-.3,0-.9.5-1.5.8-.9,2.3-1.4,4.5-1.4h22.1c1.3,0,2,.5,2.4,1,.8.9.8,2.1.8,2.2v5.2c0,1.3-.5,2.1-1,2.5-.9.9-2.1.8-2.3.8h-45.4s0,0-.1,0Z"/>
    <path fill="#FFFFFF" d="M57.7,56.2c.6-8.8.7-11.8,3.1-17.3.8-1.5,1.3-1.9,2-2.5,1.1-.9,2.8-1.2,4.1-.7.8.3,1.3.9,1.6,1.6.4,1.2.3,2.4,0,3.5-.7,3.4-1.5,6.9-2,10.3-.5,3-.8,6.1-1.1,9.1-.2,1.9-.1,3.9,0,5.9,0,1,.3,1.9.6,2.8.3,1,1,1.1,1.8.3.7-.8,1.4-1.7,1.9-2.6,2.6-4.2,4.2-8.8,5-13.5l.4-2.3c-.6,0-1.1.2-1.7.2-.7,0-1.5,0-2.2,0-1-.2-1.5-.8-1.5-1.6,0-1,.6-1.8,1.6-2,1.4-.3,2.7-.5,4.1-.7.7,0,1-.3,1.1-.9.3-1.3,1.4-6.9,2.3-8,1.1-1.3,3.4-1.6,4.8-.6.8.5,1,1.3,1.1,2.1,0,.7-.7,5.7-.7,6.4,1.1-.1,2.3-.2,3.4-.3,1.2,0,2.4-.2,3.6,0,1,0,1.5.6,1.6,1.4,0,.8-.2,1.4-1.2,1.7-1.1.4-2.3.6-3.5.8-1.3.3-2.7.4-4.1.6-.2,0-.4.2-.5.7l-.2,1.6c-.4,2.7-.8,5.3-1.1,8-.3,2.9-.5,5.8-.2,8.6,0,.5.4.9.6,1.3.5-.2,1.1-.4,1.4-.8.8-.8,1.5-1.7,2.1-2.6,1.5-2.2,2.9-4.5,4.3-6.8.7-1.1,1.1-2.2,1.3-3.4.2-1,.6-2,1.3-2.9.9-1,2.1-1.3,3.5-1.1,1.1.2,1.8.7,2,1.6.2.7.2,1.6,0,2.3-.3,2.1-.6,4.2-.9,6.3,0,.5,0,1,0,1.4,0,.2.2.6.3.6.2,0,.6,0,.8-.2.6-.6,1.2-1.2,1.7-1.8,1.9-2.4,3.7-4.8,5.5-7.2.3-.4.6-.8,1-1.1,1.2-1,2.7-1,4-.1,1.4,1,2.1,2.4,2.5,3.8.3,1,.5,2.1.7,3.2,0,.2,0,.4.2.6,0,0,3.1-2.1,5.5-3.1.6-.2,1.2-.1,1.6.3.5.4.5,1.1,0,1.8-.9,1.4-5.9,5-5.9,5-.5.3-.7.7-.7,1.2-.3,4.4-1.2,8.7-2.7,13-.8,2.1-1.7,4.2-3.4,6-1.9,2-4.2,3.2-7.1,3.3-2.4,0-4.4-1.5-4.7-3.6-.3-2.1.2-4.1,1-6.1,1.6-4,4.1-7.6,7.3-10.7.6-.6,1.2-1.2,1.8-1.8.2-.2.3-.4.3-.6,0-2.1-.1-4.1-.2-6.2,0,0-.2,0-.2,0-.1.2-.2.4-.4.5-1.6,2.4-3.2,4.9-5.4,7-1.3,1.2-2.9,2.1-4.8,2.5-1.8.3-3.4-.2-4.3-1.6-.4-.7-.7-1.4-1.1-2.2-.1.2-.3.4-.4.6-1.3,1.9-2.7,3.8-4.6,5.4-.6.5-1.3,1-2,1.4-2.2,1.1-4.4.7-5.9-1.1-1.6-1.9-2.5-4.1-3.1-6.4,0-.3-.1-.5-.2-.9-.3.5-.5,1-.7,1.4-1.2,2.5-2.9,4.6-5.5,6.2-3.2,2-6.4.6-7.9-1.4-1.1-1.6-1.7-3.5-2.2-5.3-.1-.5-.2-1-.4-1.6-7.5,8.7-13.9,7.5-13.9,7.5-2.2-.3-3.8-1-5.1-2.5-1.1-1.3-1.6-2.8-1.7-4.4-.2-2.5-.1-5,.9-7.4,1.1-2.5,2.8-4.7,5.6-6.1,2.5-1.2,5.3-1,7,.5,1.6,1.4,1.9,3.2,1.5,5.1-.7,3-3,5.1-5.9,6.6-.7.4-1.4.7-2.2,1-.1,0-.3.1-.4.3,0,0-1,.8-.5,1.8.7,1.6,5,.9,8.8-2,4.3-3.3,5.1-5.1,5.3-8.6M107.1,72.2c-2.2,2.5-4.2,5.1-5.4,8.2-.5,1.3-.8,2.6-.7,3.9,0,.4.3.7.4,1.1.4-.2.8-.4,1.1-.6.1,0,.2-.2.2-.3.5-.7,1-1.3,1.4-2,2.1-3.2,2.9-6.6,2.9-10.3ZM47.2,56.4c-1.5.5-2.8,2.8-2.8,4.6,2-.6,3.1-2.7,2.8-4.6Z"/>
    <path fill="#FFFFFF" d="M34.5,71.8c-.3,1.1-.9,3.5-3,3.6-1.6-.2-2.4-1.9-2.6-3.2-.6-13-2.9-21.5-2.9-21.5,0,0-.2,0-.3,0-.1.3-.3.6-.4.9-.9,2.1-1.6,4.3-2.6,6.3-.7,1.4-1.4,2.8-2.4,4-1.9,2.3-5.5,2.2-7.4,0-.8-1-1.6-2-2.4-3-.6-.7-1.1-1.5-1.8-2.4,0,.6,0,.9,0,1.1,0,0,.4,9.9,5.1,27,.4,1.3-.3,3.1-2.1,3.5-1.1.4-2.6,0-3.3-1.5C-.3,68.8,0,53.4,0,53.4c0-.7,0-1.5,0-2.2.1-.9.3-1.8.4-2.6.7-3.5,3.4-5.6,6.6-5.3,2.2.2,4,1.2,5.3,2.8,1.1,1.3,1.9,2.8,2.8,4.3.6,1,1.1,2,1.8,3.3.3-.6.5-.9.7-1.3,1.5-3,3-6.1,4.5-9.1,1.1-2.2,3.1-3.2,5.6-3.1,2.5,0,4.2,1,5.2,3.3,0,0,4.9,8,1.6,28.4Z"/>
    <path fill="#FFAD41" d="M22.3,85.5c-.4,0-.8-.3-.9-.8-.1-.6.2-1.1.7-1.3,9.4-2.7,24-4.1,43.4-4.2,14.4,0,26.4,1.1,26.5,1.1.3,0,.6.3.6.7,0,.3-.3.6-.6.6-.3,0-47.3-2.5-69.4,3.8,0,0-.1,0-.2,0Z"/>
  </g>
</svg>